<?xml version="1.0" encoding="UTF-8"?>
<svg xmlns="http://www.w3.org/2000/svg" xmlns:xlink="http://www.w3.org/1999/xlink" width="12px" height="12px" viewBox="0 0 12 12" version="1.1">
<g id="surface1">
<path style=" stroke:none;fill-rule:nonzero;fill:rgb(0%,0%,0%);fill-opacity:1;" d="M 11.5 10 L 11.5 11 L 8 11 L 8 10 L 9.230469 10 L 6 2.304688 C 5.90625 2.070312 5.75 1.878906 5.53125 1.730469 C 5.308594 1.578125 5.070312 1.5 4.804688 1.5 C 4.449219 1.5 4.140625 1.636719 3.878906 1.894531 C 3.621094 2.15625 3.5 2.460938 3.5 2.820312 L 3.5 4.5 L 4 4.5 C 5.105469 4.5 6 5.394531 6 6.5 L 6 11 L 4 11 C 4.304688 10.578125 4.5 10.066406 4.5 9.5 C 4.5 8.121094 3.378906 7 2 7 C 1.644531 7 1.304688 7.074219 1 7.210938 L 1 4.5 L 2.5 4.5 L 2.5 2.820312 C 2.5 2.398438 2.613281 2 2.816406 1.660156 C 3.019531 1.308594 3.296875 1.03125 3.648438 0.816406 C 4 0.605469 4.386719 0.5 4.804688 0.5 C 5.273438 0.5 5.699219 0.628906 6.078125 0.886719 C 6.460938 1.140625 6.75 1.484375 6.933594 1.90625 L 10.328125 10 L 11.5 10 M 3.5 9.5 C 3.5 10.328125 2.828125 11 2 11 C 1.171875 11 0.5 10.328125 0.5 9.5 C 0.5 8.671875 1.171875 8 2 8 C 2.828125 8 3.5 8.671875 3.5 9.5 M 2.5 9.5 C 2.5 9.226562 2.273438 9 2 9 C 1.726562 9 1.5 9.226562 1.5 9.5 C 1.5 9.773438 1.726562 10 2 10 C 2.273438 10 2.5 9.773438 2.5 9.5 Z M 2.5 9.5 "/>
</g>
</svg>
