<?xml version="1.0" encoding="UTF-8"?>
<svg xmlns="http://www.w3.org/2000/svg" xmlns:xlink="http://www.w3.org/1999/xlink" width="12px" height="12px" viewBox="0 0 12 12" version="1.1">
<g id="surface1">
<path style=" stroke:none;fill-rule:nonzero;fill:rgb(0%,0%,0%);fill-opacity:1;" d="M 6.375 1.96875 C 6.875 1.609375 7.453125 1.429688 8.109375 1.429688 C 8.46875 1.429688 8.863281 1.523438 9.296875 1.726562 C 9.726562 1.921875 10.066406 2.148438 10.316406 2.414062 C 10.828125 3.054688 11.046875 3.800781 10.96875 4.648438 C 10.890625 5.5 10.609375 6.164062 10.125 6.636719 L 6.328125 10.429688 C 6.234375 10.523438 6.113281 10.570312 5.976562 10.570312 C 5.835938 10.570312 5.71875 10.523438 5.625 10.429688 C 5.53125 10.335938 5.484375 10.21875 5.484375 10.078125 C 5.484375 9.941406 5.53125 9.820312 5.625 9.726562 L 7.921875 7.429688 C 8.046875 7.320312 8.046875 7.203125 7.921875 7.078125 C 7.796875 6.953125 7.679688 6.953125 7.570312 7.078125 L 5.273438 9.375 C 5.179688 9.46875 5.066406 9.515625 4.921875 9.515625 C 4.78125 9.515625 4.664062 9.46875 4.570312 9.375 C 4.476562 9.28125 4.429688 9.164062 4.429688 9.023438 C 4.429688 8.886719 4.476562 8.765625 4.570312 8.671875 L 6.863281 6.375 C 7 6.25 7 6.125 6.863281 6 C 6.75 5.875 6.640625 5.875 6.515625 6 L 4.21875 8.320312 C 4.125 8.414062 4 8.460938 3.863281 8.460938 C 3.726562 8.460938 3.605469 8.414062 3.5 8.320312 C 3.398438 8.226562 3.351562 8.109375 3.351562 7.96875 C 3.351562 7.828125 3.40625 7.703125 3.515625 7.59375 L 5.816406 5.296875 C 5.941406 5.171875 5.941406 5.054688 5.816406 4.945312 C 5.691406 4.835938 5.570312 4.835938 5.460938 4.945312 L 3.140625 7.25 C 3.03125 7.351562 2.914062 7.40625 2.789062 7.40625 C 2.648438 7.40625 2.53125 7.355469 2.441406 7.25 C 2.34375 7.148438 2.296875 7.03125 2.296875 6.890625 C 2.296875 6.75 2.34375 6.636719 2.441406 6.539062 C 3.96875 5 4.914062 4.070312 5.273438 3.726562 L 7.054688 5.484375 C 7.25 5.671875 7.476562 5.765625 7.75 5.765625 C 8.101562 5.765625 8.375 5.625 8.578125 5.34375 C 8.71875 5.140625 8.769531 4.914062 8.730469 4.664062 C 8.691406 4.414062 8.585938 4.203125 8.414062 4.03125 L 6.375 1.96875 M 7.40625 5.136719 L 5.273438 3 L 1.734375 6.539062 C 1.316406 6.113281 1.074219 5.464844 1.019531 4.578125 C 0.964844 3.699219 1.203125 2.933594 1.734375 2.296875 C 2.328125 1.703125 3.039062 1.40625 3.863281 1.40625 C 4.695312 1.40625 5.398438 1.703125 5.976562 2.296875 L 8.109375 4.429688 C 8.203125 4.523438 8.25 4.640625 8.25 4.78125 C 8.25 4.921875 8.203125 5.039062 8.109375 5.136719 C 8.015625 5.226562 7.898438 5.273438 7.75 5.273438 C 7.613281 5.273438 7.5 5.226562 7.40625 5.136719 Z M 7.40625 5.136719 "/>
</g>
</svg>
