<?xml version="1.0" encoding="UTF-8"?>
<svg xmlns="http://www.w3.org/2000/svg" xmlns:xlink="http://www.w3.org/1999/xlink" width="24px" height="24px" viewBox="0 0 24 24" version="1.1">
<g id="surface1">
<path style=" stroke:none;fill-rule:nonzero;fill:rgb(0%,0%,0%);fill-opacity:1;" d="M 23 20 L 23 22 L 16 22 L 16 20 L 18.460938 20 L 12 4.609375 C 11.8125 4.140625 11.5 3.757812 11.0625 3.460938 C 10.617188 3.15625 10.140625 3 9.609375 3 C 8.898438 3 8.28125 3.273438 7.757812 3.789062 C 7.242188 4.3125 7 4.921875 7 5.640625 L 7 9 L 8 9 C 10.210938 9 12 10.789062 12 13 L 12 22 L 8 22 C 8.609375 21.15625 9 20.132812 9 19 C 9 16.242188 6.757812 14 4 14 C 3.289062 14 2.609375 14.148438 2 14.421875 L 2 9 L 5 9 L 5 5.640625 C 5 4.796875 5.226562 4 5.632812 3.320312 C 6.039062 2.617188 6.59375 2.0625 7.296875 1.632812 C 8 1.210938 8.773438 1 9.609375 1 C 10.546875 1 11.398438 1.257812 12.15625 1.773438 C 12.921875 2.28125 13.5 2.96875 13.867188 3.8125 L 20.65625 20 L 23 20 M 7 19 C 7 20.65625 5.65625 22 4 22 C 2.34375 22 1 20.65625 1 19 C 1 17.34375 2.34375 16 4 16 C 5.65625 16 7 17.34375 7 19 M 5 19 C 5 18.453125 4.546875 18 4 18 C 3.453125 18 3 18.453125 3 19 C 3 19.546875 3.453125 20 4 20 C 4.546875 20 5 19.546875 5 19 Z M 5 19 "/>
</g>
</svg>
