<?xml version="1.0" encoding="UTF-8"?>
<svg xmlns="http://www.w3.org/2000/svg" xmlns:xlink="http://www.w3.org/1999/xlink" width="24px" height="24px" viewBox="0 0 24 24" version="1.1">
<g id="surface1">
<path style=" stroke:none;fill-rule:nonzero;fill:rgb(0%,0%,0%);fill-opacity:1;" d="M 7.46875 1.28125 C 7.398438 1.015625 7.1875 0.808594 6.921875 0.742188 C 6.652344 0.671875 6.371094 0.757812 6.183594 0.964844 C 6 1.167969 5.941406 1.457031 6.03125 1.71875 L 6.648438 3.746094 C 5.269531 5.148438 4.5 7.035156 4.5 9 L 19.5 9 C 19.5 7.035156 18.730469 5.148438 17.351562 3.746094 L 17.96875 1.71875 C 18.058594 1.457031 18 1.167969 17.816406 0.964844 C 17.628906 0.757812 17.347656 0.671875 17.078125 0.742188 C 16.8125 0.808594 16.601562 1.015625 16.53125 1.28125 L 16.097656 2.714844 C 14.878906 1.921875 13.453125 1.5 12 1.5 C 10.546875 1.5 9.121094 1.921875 7.902344 2.714844 Z M 7.46875 1.28125 "/>
<path style=" stroke:none;fill-rule:nonzero;fill:rgb(0%,0%,0%);fill-opacity:1;" d="M 19.5 9 L 19.5 10.5 L 12.75 10.5 L 12.75 23.960938 C 16.582031 23.578125 19.5 20.351562 19.5 16.5 L 20.25 16.5 C 20.664062 16.5 21 16.835938 21 17.25 L 21 18 C 21 18.414062 21.335938 18.75 21.75 18.75 C 22.164062 18.75 22.5 18.414062 22.5 18 L 22.5 17.25 C 22.5 16.007812 21.492188 15 20.25 15 L 19.5 15 L 19.5 13.5 L 21.75 13.5 C 22.164062 13.5 22.5 13.164062 22.5 12.75 C 22.5 12.335938 22.164062 12 21.75 12 L 19.5 12 L 19.5 10.5 L 20.25 10.5 C 21.492188 10.5 22.5 9.492188 22.5 8.25 L 22.5 7.5 C 22.5 7.085938 22.164062 6.75 21.75 6.75 C 21.335938 6.75 21 7.085938 21 7.5 L 21 8.25 C 21 8.664062 20.664062 9 20.25 9 Z M 11.25 23.960938 L 11.25 10.5 L 4.5 10.5 L 4.5 9 L 3.75 9 C 3.335938 9 3 8.664062 3 8.25 L 3 7.5 C 3 7.085938 2.664062 6.75 2.25 6.75 C 1.835938 6.75 1.5 7.085938 1.5 7.5 L 1.5 8.25 C 1.5 9.492188 2.507812 10.5 3.75 10.5 L 4.5 10.5 L 4.5 12 L 2.25 12 C 1.835938 12 1.5 12.335938 1.5 12.75 C 1.5 13.164062 1.835938 13.5 2.25 13.5 L 4.5 13.5 L 4.5 15 L 3.75 15 C 2.507812 15 1.5 16.007812 1.5 17.25 L 1.5 18 C 1.5 18.414062 1.835938 18.75 2.25 18.75 C 2.664062 18.75 3 18.414062 3 18 L 3 17.25 C 3 16.835938 3.335938 16.5 3.75 16.5 L 4.5 16.5 C 4.5 20.351562 7.417969 23.578125 11.25 23.960938 "/>
</g>
</svg>
